NotoSerifDisplay-CondensedBold.ufo
<glyph name="exclamdown" format="2">
  <advance width="349"/>
  <unicode hex="00A1"/>
  <outline>
    <contour>
      <point x="84" y="-180" type="line"/>
      <point x="265" y="-180" type="line"/>
      <point x="182" y="299" type="line"/>
      <point x="167" y="299" type="line"/>
    </contour>
    <contour>
      <point x="173" y="378" type="curve" smooth="yes"/>
      <point x="212" y="378"/>
      <point x="242" y="398"/>
      <point x="242" y="460" type="curve" smooth="yes"/>
      <point x="242" y="522"/>
      <point x="212" y="542"/>
      <point x="173" y="542" type="curve" smooth="yes"/>
      <point x="136" y="542"/>
      <point x="104" y="522"/>
      <point x="104" y="460" type="curve" smooth="yes"/>
      <point x="104" y="398"/>
      <point x="136" y="378"/>
    </contour>
  </outline>
</glyph>
<glyph name="acute" format="2">
  <advance width="291"/>
  <unicode hex="00B4"/>
  <outline>
    <contour>
      <point x="40" y="605" type="line"/>
      <point x="50" y="605" type="line"/>
      <point x="109" y="643"/>
      <point x="216" y="721"/>
      <point x="251" y="756" type="curve"/>
      <point x="251" y="766" type="line"/>
      <point x="105" y="766" type="line"/>
      <point x="88" y="721"/>
      <point x="62" y="656"/>
      <point x="40" y="615" type="curve"/>
    </contour>
  </outline>
</glyph>
<glyph name="uni0191" format="2">
  <advance width="664"/>
  <unicode hex="0191"/>
  <anchor x="159" y="-10" name="bottom"/>
  <anchor x="396" y="714" name="top"/>
  <anchor x="647" y="714" name="topright"/>
  <outline>
    <contour>
      <point x="159" y="-10" type="curve" smooth="yes"/>
      <point x="300" y="-10"/>
      <point x="388" y="74"/>
      <point x="388" y="231" type="curve" smooth="yes"/>
      <point x="388" y="366" type="line"/>
      <point x="584" y="366" type="line"/>
      <point x="584" y="376" type="line"/>
      <point x="388" y="376" type="line"/>
      <point x="388" y="704" type="line"/>
      <point x="481" y="704" type="line" smooth="yes"/>
      <point x="588" y="704"/>
      <point x="624" y="666"/>
      <point x="631" y="544" type="curve" smooth="yes"/>
      <point x="632" y="527" type="line"/>
      <point x="642" y="527" type="line"/>
      <point x="636" y="714" type="line"/>
      <point x="145" y="714" type="line"/>
      <point x="145" y="704" type="line"/>
      <point x="186" y="704" type="line" smooth="yes"/>
      <point x="206" y="704"/>
      <point x="221" y="690"/>
      <point x="221" y="650" type="curve" smooth="yes"/>
      <point x="221" y="137" type="line" smooth="yes"/>
      <point x="221" y="29"/>
      <point x="191" y="0"/>
      <point x="157" y="0" type="curve" smooth="yes"/>
      <point x="96" y="0"/>
      <point x="75" y="50"/>
      <point x="75" y="180" type="curve"/>
      <point x="27" y="180"/>
      <point x="-12" y="162"/>
      <point x="-12" y="102" type="curve" smooth="yes"/>
      <point x="-12" y="41"/>
      <point x="29" y="-10"/>
    </contour>
  </outline>
</glyph>
<glyph name="florin" format="2">
  <advance width="423"/>
  <unicode hex="0192"/>
  <anchor x="113" y="-11" name="bottom"/>
  <anchor x="302" y="769" name="top"/>
  <anchor x="493" y="769" name="topright"/>
  <outline>
    <contour>
      <point x="113" y="-11" type="curve" smooth="yes"/>
      <point x="251" y="-11"/>
      <point x="310" y="73"/>
      <point x="310" y="244" type="curve" smooth="yes"/>
      <point x="310" y="526" type="line"/>
      <point x="423" y="526" type="line"/>
      <point x="423" y="536" type="line"/>
      <point x="310" y="536" type="line"/>
      <point x="310" y="640" type="line" smooth="yes"/>
      <point x="310" y="730"/>
      <point x="318" y="759"/>
      <point x="341" y="759" type="curve" smooth="yes"/>
      <point x="365" y="759"/>
      <point x="372" y="726"/>
      <point x="372" y="622" type="curve"/>
      <point x="462" y="622"/>
      <point x="481" y="657"/>
      <point x="481" y="695" type="curve" smooth="yes"/>
      <point x="481" y="730"/>
      <point x="458" y="769"/>
      <point x="334" y="769" type="curve" smooth="yes"/>
      <point x="197" y="769"/>
      <point x="148" y="695"/>
      <point x="148" y="569" type="curve" smooth="yes"/>
      <point x="148" y="536" type="line"/>
      <point x="75" y="536" type="line"/>
      <point x="75" y="526" type="line"/>
      <point x="148" y="526" type="line"/>
      <point x="148" y="128" type="line" smooth="yes"/>
      <point x="148" y="28"/>
      <point x="140" y="-1"/>
      <point x="117" y="-1" type="curve" smooth="yes"/>
      <point x="91" y="-1"/>
      <point x="84" y="32"/>
      <point x="84" y="136" type="curve"/>
      <point x="6" y="136"/>
      <point x="-11" y="104"/>
      <point x="-11" y="69" type="curve" smooth="yes"/>
      <point x="-11" y="31"/>
      <point x="25" y="-11"/>
    </contour>
  </outline>
</glyph>
<glyph name="uni01C0" format="2">
  <advance width="304"/>
  <unicode hex="01C0"/>
  <anchor x="152" y="0" name="bottom"/>
  <anchor x="152" y="760" name="top"/>
  <outline>
    <contour>
      <point x="112" y="0" type="line"/>
      <point x="192" y="0" type="line"/>
      <point x="192" y="760" type="line"/>
      <point x="112" y="760" type="line"/>
    </contour>
  </outline>
</glyph>
<glyph name="uni023A" format="2">
  <advance width="657"/>
  <unicode hex="023A"/>
  <anchor x="329" y="-93" name="bottom"/>
  <anchor x="329" y="714" name="top"/>
  <anchor x="547" y="714" name="topright"/>
  <outline>
    <contour>
      <point x="205" y="-93" type="line"/>
      <point x="215" y="-93" type="line"/>
      <point x="451" y="760" type="line"/>
      <point x="441" y="760" type="line"/>
    </contour>
    <component base="A"/>
  </outline>
</glyph>
<glyph name="uni023D" format="2">
  <advance width="564"/>
  <unicode hex="023D"/>
  <anchor x="282" y="0" name="bottom"/>
  <anchor x="282" y="714" name="top"/>
  <anchor x="174" y="357" name="center"/>
  <anchor x="544" y="714" name="topright"/>
  <outline>
    <contour>
      <point x="19" y="356" type="line"/>
      <point x="401" y="356" type="line"/>
      <point x="401" y="366" type="line"/>
      <point x="19" y="366" type="line"/>
    </contour>
    <component base="L"/>
  </outline>
</glyph>
<glyph name="uni023E" format="2">
  <advance width="569"/>
  <unicode hex="023E"/>
  <anchor x="285" y="0" name="bottom"/>
  <anchor x="285" y="714" name="top"/>
  <anchor x="284" y="357" name="center"/>
  <anchor x="588" y="714" name="topright"/>
  <outline>
    <contour>
      <point x="43" y="-88" type="line"/>
      <point x="55" y="-88" type="line"/>
      <point x="509" y="760" type="line"/>
      <point x="497" y="760" type="line"/>
    </contour>
    <component base="T"/>
  </outline>
</glyph>
<glyph name="uni0248" format="2">
  <advance width="357"/>
  <unicode hex="0248"/>
  <anchor x="87" y="-240" name="bottom"/>
  <anchor x="157" y="714" name="top"/>
  <anchor x="322" y="714" name="topright"/>
  <outline>
    <contour>
      <point x="24" y="347" type="line"/>
      <point x="340" y="347" type="line"/>
      <point x="340" y="357" type="line"/>
      <point x="24" y="357" type="line"/>
    </contour>
    <component base="J"/>
  </outline>
</glyph>
<glyph name="uni024E" format="2">
  <advance width="620"/>
  <unicode hex="024E"/>
  <anchor x="310" y="0" name="bottom"/>
  <anchor x="310" y="714" name="top"/>
  <anchor x="600" y="714" name="topright"/>
  <outline>
    <contour>
      <point x="12" y="505" type="line"/>
      <point x="609" y="505" type="line"/>
      <point x="609" y="515" type="line"/>
      <point x="12" y="515" type="line"/>
    </contour>
    <component base="Y"/>
  </outline>
</glyph>
<glyph name="uni024F" format="2">
  <advance width="491"/>
  <unicode hex="024F"/>
  <anchor x="246" y="-225" name="bottom"/>
  <anchor x="246" y="536" name="top"/>
  <anchor x="501" y="536" name="topright"/>
  <outline>
    <contour>
      <point x="9" y="331" type="line"/>
      <point x="482" y="331" type="line"/>
      <point x="482" y="341" type="line"/>
      <point x="9" y="341" type="line"/>
    </contour>
    <component base="y"/>
  </outline>
</glyph>
<glyph name="dotaccent" format="2">
  <advance width="233"/>
  <unicode hex="02D9"/>
  <outline>
    <contour>
      <point x="116" y="625" type="curve" smooth="yes"/>
      <point x="158" y="625"/>
      <point x="193" y="649"/>
      <point x="193" y="698" type="curve" smooth="yes"/>
      <point x="193" y="749"/>
      <point x="158" y="771"/>
      <point x="116" y="771" type="curve" smooth="yes"/>
      <point x="73" y="771"/>
      <point x="40" y="749"/>
      <point x="40" y="698" type="curve" smooth="yes"/>
      <point x="40" y="649"/>
      <point x="73" y="625"/>
    </contour>
  </outline>
</glyph>
<glyph name="doublemacronbelowcomb" format="2">
  <unicode hex="035F"/>
  <anchor x="0" y="0" name="_bottom"/>
  <anchor x="0" y="-143" name="bottom"/>
  <outline>
    <contour>
      <point x="-246" y="-124" type="line"/>
      <point x="246" y="-124" type="line"/>
      <point x="246" y="-104" type="line"/>
      <point x="-246" y="-104" type="line"/>
    </contour>
  </outline>
</glyph>
<glyph name="uni04B8" format="2">
  <advance width="665"/>
  <unicode hex="04B8"/>
  <anchor x="333" y="0" name="bottom"/>
  <anchor x="333" y="714" name="top"/>
  <outline>
    <contour>
      <point x="320" y="116" type="line"/>
      <point x="330" y="116" type="line"/>
      <point x="330" y="484" type="line"/>
      <point x="320" y="484" type="line"/>
    </contour>
    <component base="afii10041"/>
  </outline>
</glyph>
<glyph name="uni04C6" format="2">
  <advance width="571"/>
  <unicode hex="04C6"/>
  <anchor x="289" y="0" name="bottom"/>
  <anchor x="299" y="536" name="top"/>
  <outline>
    <contour>
      <point x="427" y="-210" type="line"/>
      <point x="509" y="-210" type="line"/>
      <point x="561" y="0" type="line"/>
      <point x="559" y="10" type="line"/>
      <point x="552" y="10" type="line"/>
      <point x="552" y="0" type="line"/>
    </contour>
    <component base="afii10077"/>
  </outline>
</glyph>
<glyph name="uni051E" format="2">
  <advance width="651"/>
  <unicode hex="051E"/>
  <anchor x="326" y="0" name="bottom"/>
  <anchor x="326" y="714" name="top"/>
  <outline>
    <contour>
      <point x="557" y="476" type="line"/>
      <point x="563" y="484" type="line"/>
      <point x="349" y="621" type="line"/>
      <point x="343" y="613" type="line"/>
    </contour>
    <component base="afii10028"/>
  </outline>
</glyph>
<glyph name="uni051F" format="2">
  <advance width="552"/>
  <unicode hex="051F"/>
  <anchor x="276" y="0" name="bottom"/>
  <anchor x="276" y="536" name="top"/>
  <outline>
    <contour>
      <point x="448" y="339" type="line"/>
      <point x="453" y="347" type="line"/>
      <point x="291" y="453" type="line"/>
      <point x="286" y="445" type="line"/>
    </contour>
    <component base="afii10076"/>
  </outline>
</glyph>
<glyph name="uni052D" format="2">
  <advance width="612"/>
  <unicode hex="052D"/>
  <anchor x="262" y="-210" name="bottom"/>
  <anchor x="262" y="536" name="top"/>
  <outline>
    <contour>
      <point x="33" y="-210" type="line"/>
      <point x="43" y="-210" type="line"/>
      <point x="47" y="-150" type="line" smooth="yes"/>
      <point x="55" y="-36"/>
      <point x="91" y="0"/>
      <point x="197" y="0" type="curve" smooth="yes"/>
      <point x="438" y="0" type="line" smooth="yes"/>
      <point x="546" y="0"/>
      <point x="582" y="-36"/>
      <point x="588" y="-151" type="curve" smooth="yes"/>
      <point x="591" y="-210" type="line"/>
      <point x="601" y="-210" type="line"/>
      <point x="601" y="10" type="line"/>
      <point x="574" y="10" type="line" smooth="yes"/>
      <point x="532" y="10"/>
      <point x="524" y="28"/>
      <point x="524" y="80" type="curve" smooth="yes"/>
      <point x="524" y="452" type="line" smooth="yes"/>
      <point x="524" y="508"/>
      <point x="537" y="526"/>
      <point x="571" y="526" type="curve" smooth="yes"/>
      <point x="589" y="526" type="line"/>
      <point x="589" y="536" type="line"/>
      <point x="354" y="536" type="line"/>
      <point x="225" y="270" type="line"/>
      <point x="224" y="281"/>
      <point x="224" y="293"/>
      <point x="224" y="307" type="curve" smooth="yes"/>
      <point x="224" y="464" type="line" smooth="yes"/>
      <point x="224" y="514"/>
      <point x="232" y="526"/>
      <point x="258" y="526" type="curve" smooth="yes"/>
      <point x="264" y="526" type="line"/>
      <point x="264" y="536" type="line"/>
      <point x="6" y="536" type="line"/>
      <point x="6" y="526" type="line"/>
      <point x="13" y="526" type="line" smooth="yes"/>
      <point x="48" y="526"/>
      <point x="61" y="504"/>
      <point x="61" y="458" type="curve" smooth="yes"/>
      <point x="61" y="312" type="line" smooth="yes"/>
      <point x="61" y="236"/>
      <point x="100" y="193"/>
      <point x="183" y="182" type="curve"/>
      <point x="100" y="10" type="line"/>
      <point x="33" y="10" type="line"/>
    </contour>
    <contour>
      <point x="111" y="10" type="line"/>
      <point x="193" y="181" type="line"/>
      <point x="206" y="180"/>
      <point x="219" y="179"/>
      <point x="233" y="179" type="curve" smooth="yes"/>
      <point x="289" y="179"/>
      <point x="331" y="195"/>
      <point x="360" y="211" type="curve"/>
      <point x="360" y="10" type="line"/>
    </contour>
    <contour>
      <point x="286" y="198" type="curve" smooth="yes"/>
      <point x="253" y="198"/>
      <point x="235" y="211"/>
      <point x="228" y="252" type="curve"/>
      <point x="360" y="526" type="line"/>
      <point x="360" y="222" type="line"/>
      <point x="339" y="208"/>
      <point x="311" y="198"/>
    </contour>
  </outline>
</glyph>
<glyph name="uni1ABF" format="2">
  <unicode hex="1ABF"/>
  <anchor x="0" y="0" name="_bottom"/>
  <outline>
    <contour>
      <point x="-136" y="-89" type="curve" smooth="yes"/>
      <point x="-86" y="-278" type="line"/>
      <point x="-47" y="-278" type="line"/>
      <point x="-5" y="-125" type="line"/>
      <point x="42" y="-278" type="line"/>
      <point x="83" y="-278" type="line"/>
      <point x="127" y="-87" type="line"/>
      <point x="131" y="-69"/>
      <point x="134" y="-68"/>
      <point x="153" y="-68" type="curve" smooth="yes"/>
      <point x="161" y="-68" type="line"/>
      <point x="161" y="-64" type="line"/>
      <point x="88" y="-64" type="line"/>
      <point x="88" y="-68" type="line"/>
      <point x="107" y="-68" type="line" smooth="yes"/>
      <point x="121" y="-68"/>
      <point x="123" y="-70"/>
      <point x="123" y="-76" type="curve" smooth="yes"/>
      <point x="123" y="-80"/>
      <point x="121" y="-90"/>
      <point x="118" y="-103" type="curve" smooth="yes"/>
      <point x="97" y="-195" type="line" smooth="yes"/>
      <point x="94" y="-208"/>
      <point x="91" y="-220"/>
      <point x="89" y="-232" type="curve"/>
      <point x="88" y="-232" type="line"/>
      <point x="84" y="-216"/>
      <point x="80" y="-203"/>
      <point x="76" y="-190" type="curve" smooth="yes"/>
      <point x="36" y="-64" type="line"/>
      <point x="8" y="-64" type="line"/>
      <point x="-29" y="-195" type="line" smooth="yes"/>
      <point x="-32" y="-204"/>
      <point x="-34" y="-216"/>
      <point x="-38" y="-230" type="curve"/>
      <point x="-39" y="-230" type="line"/>
      <point x="-42" y="-217"/>
      <point x="-44" y="-208"/>
      <point x="-46" y="-199" type="curve" smooth="yes"/>
      <point x="-70" y="-104" type="line" smooth="yes"/>
      <point x="-73" y="-91"/>
      <point x="-77" y="-82"/>
      <point x="-77" y="-77" type="curve" smooth="yes"/>
      <point x="-77" y="-70"/>
      <point x="-73" y="-68"/>
      <point x="-60" y="-68" type="curve" smooth="yes"/>
      <point x="-38" y="-68" type="line"/>
      <point x="-38" y="-64" type="line"/>
      <point x="-161" y="-64" type="line"/>
      <point x="-161" y="-68" type="line"/>
      <point x="-160" y="-68" type="line" smooth="yes"/>
      <point x="-144" y="-68"/>
      <point x="-141" y="-70"/>
    </contour>
  </outline>
</glyph>
<glyph name="uni1AC0" format="2">
  <unicode hex="1AC0"/>
  <anchor x="0" y="0" name="_bottom"/>
  <outline>
    <contour>
      <point x="136" y="-253" type="curve" smooth="yes"/>
      <point x="86" y="-64" type="line"/>
      <point x="47" y="-64" type="line"/>
      <point x="5" y="-217" type="line"/>
      <point x="-42" y="-64" type="line"/>
      <point x="-83" y="-64" type="line"/>
      <point x="-127" y="-255" type="line"/>
      <point x="-131" y="-273"/>
      <point x="-134" y="-274"/>
      <point x="-153" y="-274" type="curve" smooth="yes"/>
      <point x="-161" y="-274" type="line"/>
      <point x="-161" y="-278" type="line"/>
      <point x="-88" y="-278" type="line"/>
      <point x="-88" y="-274" type="line"/>
      <point x="-107" y="-274" type="line" smooth="yes"/>
      <point x="-121" y="-274"/>
      <point x="-123" y="-272"/>
      <point x="-123" y="-266" type="curve" smooth="yes"/>
      <point x="-123" y="-262"/>
      <point x="-121" y="-252"/>
      <point x="-118" y="-239" type="curve" smooth="yes"/>
      <point x="-97" y="-147" type="line" smooth="yes"/>
      <point x="-94" y="-134"/>
      <point x="-91" y="-122"/>
      <point x="-89" y="-110" type="curve"/>
      <point x="-88" y="-110" type="line"/>
      <point x="-84" y="-126"/>
      <point x="-80" y="-139"/>
      <point x="-76" y="-152" type="curve" smooth="yes"/>
      <point x="-36" y="-278" type="line"/>
      <point x="-8" y="-278" type="line"/>
      <point x="29" y="-147" type="line" smooth="yes"/>
      <point x="32" y="-138"/>
      <point x="34" y="-126"/>
      <point x="38" y="-112" type="curve"/>
      <point x="39" y="-112" type="line"/>
      <point x="42" y="-125"/>
      <point x="44" y="-134"/>
      <point x="46" y="-143" type="curve" smooth="yes"/>
      <point x="70" y="-238" type="line" smooth="yes"/>
      <point x="73" y="-251"/>
      <point x="77" y="-260"/>
      <point x="77" y="-265" type="curve" smooth="yes"/>
      <point x="77" y="-272"/>
      <point x="73" y="-274"/>
      <point x="60" y="-274" type="curve" smooth="yes"/>
      <point x="38" y="-274" type="line"/>
      <point x="38" y="-278" type="line"/>
      <point x="161" y="-278" type="line"/>
      <point x="161" y="-274" type="line"/>
      <point x="160" y="-274" type="line" smooth="yes"/>
      <point x="144" y="-274"/>
      <point x="141" y="-272"/>
    </contour>
  </outline>
</glyph>
<glyph name="uni1D03" format="2">
  <advance width="534"/>
  <unicode hex="1D03"/>
  <anchor x="263" y="0" name="bottom"/>
  <anchor x="263" y="536" name="top"/>
  <outline>
    <contour>
      <point x="11" y="270" type="line"/>
      <point x="515" y="270" type="line"/>
      <point x="515" y="280" type="line"/>
      <point x="11" y="280" type="line"/>
    </contour>
    <component base="afii10067"/>
  </outline>
</glyph>
<glyph name="uni1D09" format="2">
  <advance width="309"/>
  <unicode hex="1D09"/>
  <anchor x="155" y="-208" name="bottom"/>
  <anchor x="155" y="536" name="top"/>
  <outline>
    <contour>
      <point x="12" y="0" type="line"/>
      <point x="297" y="0" type="line"/>
      <point x="297" y="10" type="line"/>
      <point x="269" y="10" type="line" smooth="yes"/>
      <point x="242" y="10"/>
      <point x="233" y="22"/>
      <point x="233" y="58" type="curve" smooth="yes"/>
      <point x="233" y="479" type="line" smooth="yes"/>
      <point x="233" y="515"/>
      <point x="242" y="526"/>
      <point x="269" y="526" type="curve" smooth="yes"/>
      <point x="297" y="526" type="line"/>
      <point x="297" y="536" type="line"/>
      <point x="12" y="536" type="line"/>
      <point x="12" y="526" type="line"/>
      <point x="41" y="526" type="line" smooth="yes"/>
      <point x="68" y="526"/>
      <point x="76" y="515"/>
      <point x="76" y="479" type="curve" smooth="yes"/>
      <point x="76" y="58" type="line" smooth="yes"/>
      <point x="76" y="22"/>
      <point x="68" y="10"/>
      <point x="41" y="10" type="curve" smooth="yes"/>
      <point x="12" y="10" type="line"/>
    </contour>
    <contour>
      <point x="154" y="-208" type="curve" smooth="yes"/>
      <point x="196" y="-208"/>
      <point x="232" y="-184"/>
      <point x="232" y="-133" type="curve" smooth="yes"/>
      <point x="232" y="-81"/>
      <point x="196" y="-59"/>
      <point x="154" y="-59" type="curve" smooth="yes"/>
      <point x="111" y="-59"/>
      <point x="79" y="-81"/>
      <point x="79" y="-133" type="curve" smooth="yes"/>
      <point x="79" y="-184"/>
      <point x="111" y="-208"/>
    </contour>
  </outline>
</glyph>
<glyph name="uni1D24" format="2">
  <advance width="419"/>
  <unicode hex="1D24"/>
  <anchor x="210" y="0" name="bottom"/>
  <anchor x="210" y="536" name="top"/>
  <outline>
    <contour>
      <point x="227" y="-10" type="curve" smooth="yes"/>
      <point x="336" y="-10"/>
      <point x="399" y="27"/>
      <point x="399" y="101" type="curve" smooth="yes"/>
      <point x="399" y="151"/>
      <point x="371" y="175"/>
      <point x="312" y="175" type="curve"/>
      <point x="312" y="45"/>
      <point x="288" y="0"/>
      <point x="218" y="0" type="curve" smooth="yes"/>
      <point x="158" y="0"/>
      <point x="126" y="33"/>
      <point x="126" y="91" type="curve" smooth="yes"/>
      <point x="126" y="148"/>
      <point x="157" y="168"/>
      <point x="204" y="178" type="curve"/>
      <point x="204" y="224" type="line"/>
      <point x="309" y="241"/>
      <point x="394" y="277"/>
      <point x="394" y="392" type="curve" smooth="yes"/>
      <point x="394" y="496"/>
      <point x="325" y="549"/>
      <point x="202" y="549" type="curve" smooth="yes"/>
      <point x="92" y="549"/>
      <point x="40" y="506"/>
      <point x="40" y="452" type="curve" smooth="yes"/>
      <point x="40" y="409"/>
      <point x="72" y="390"/>
      <point x="131" y="390" type="curve"/>
      <point x="131" y="498"/>
      <point x="152" y="539"/>
      <point x="210" y="539" type="curve" smooth="yes"/>
      <point x="257" y="539"/>
      <point x="290" y="513"/>
      <point x="290" y="459" type="curve" smooth="yes"/>
      <point x="290" y="405"/>
      <point x="258" y="373"/>
      <point x="204" y="363" type="curve"/>
      <point x="204" y="312" type="line"/>
      <point x="101" y="294"/>
      <point x="21" y="257"/>
      <point x="21" y="149" type="curve" smooth="yes"/>
      <point x="21" y="49"/>
      <point x="89" y="-10"/>
    </contour>
  </outline>
</glyph>
<glyph name="uni1D3B" format="2">
  <advance width="437"/>
  <unicode hex="1D3B"/>
  <anchor x="211" y="287" name="bottom"/>
  <anchor x="211" y="715" name="top"/>
  <anchor x="425" y="715" name="topright"/>
  <outline>
    <contour>
      <point x="74" y="287" type="line"/>
      <point x="132" y="287" type="line"/>
      <point x="356" y="686" type="line"/>
      <point x="356" y="331" type="line" smooth="yes"/>
      <point x="356" y="302"/>
      <point x="350" y="293"/>
      <point x="330" y="293" type="curve" smooth="yes"/>
      <point x="287" y="293" type="line"/>
      <point x="287" y="287" type="line"/>
      <point x="425" y="287" type="line"/>
      <point x="425" y="293" type="line"/>
      <point x="395" y="293" type="line" smooth="yes"/>
      <point x="371" y="293"/>
      <point x="363" y="302"/>
      <point x="363" y="331" type="curve" smooth="yes"/>
      <point x="363" y="674" type="line" smooth="yes"/>
      <point x="363" y="701"/>
      <point x="369" y="709"/>
      <point x="390" y="709" type="curve" smooth="yes"/>
      <point x="425" y="709" type="line"/>
      <point x="425" y="715" type="line"/>
      <point x="265" y="715" type="line"/>
      <point x="81" y="390" type="line"/>
      <point x="81" y="674" type="line" smooth="yes"/>
      <point x="81" y="701"/>
      <point x="87" y="709"/>
      <point x="107" y="709" type="curve" smooth="yes"/>
      <point x="150" y="709" type="line"/>
      <point x="150" y="715" type="line"/>
      <point x="5" y="715" type="line"/>
      <point x="5" y="709" type="line"/>
      <point x="48" y="709" type="line" smooth="yes"/>
      <point x="68" y="709"/>
      <point x="74" y="700"/>
      <point x="74" y="672" type="curve" smooth="yes"/>
    </contour>
  </outline>
</glyph>
<glyph name="uni1D75" format="2">
  <advance width="371"/>
  <unicode hex="1D75"/>
  <anchor x="226" y="0" name="bottom"/>
  <anchor x="186" y="268" name="center"/>
  <anchor x="176" y="660" name="top"/>
  <anchor x="371" y="660" name="topright"/>
  <outline>
    <contour>
      <point x="-40" y="207" type="curve"/>
      <point x="-30" y="207" type="line"/>
      <point x="-26" y="235"/>
      <point x="-14" y="283"/>
      <point x="39" y="283" type="curve" smooth="yes"/>
      <point x="110" y="283"/>
      <point x="177" y="197"/>
      <point x="253" y="197" type="curve" smooth="yes"/>
      <point x="321" y="197"/>
      <point x="361" y="264"/>
      <point x="365" y="351" type="curve"/>
      <point x="355" y="351" type="line"/>
      <point x="351" y="321"/>
      <point x="337" y="275"/>
      <point x="286" y="275" type="curve" smooth="yes"/>
      <point x="219" y="275"/>
      <point x="148" y="361"/>
      <point x="71" y="361" type="curve" smooth="yes"/>
      <point x="3" y="361"/>
      <point x="-36" y="291"/>
    </contour>
    <component base="t"/>
  </outline>
</glyph>
<glyph name="uni1D7B" format="2">
  <advance width="307"/>
  <unicode hex="1D7B"/>
  <anchor x="157" y="0" name="bottom"/>
  <anchor x="157" y="536" name="top"/>
  <outline>
    <contour>
      <point x="-19" y="284" type="line"/>
      <point x="328" y="284" type="line"/>
      <point x="328" y="294" type="line"/>
      <point x="-19" y="294" type="line"/>
    </contour>
    <component base="uni026A"/>
  </outline>
</glyph>
<glyph name="uni1D88" format="2">
  <advance width="557"/>
  <unicode hex="1D88"/>
  <anchor x="279" y="-225" name="bottom"/>
  <anchor x="279" y="536" name="top"/>
  <anchor x="547" y="536" name="topright"/>
  <outline>
    <contour>
      <point x="404" y="-205" type="curve" smooth="yes"/>
      <point x="468" y="-205"/>
      <point x="494" y="-168"/>
      <point x="494" y="-49" type="curve" smooth="yes"/>
      <point x="494" y="111" type="line"/>
      <point x="484" y="111" type="line"/>
      <point x="484" y="-34" type="line" smooth="yes"/>
      <point x="484" y="-96"/>
      <point x="465" y="-116"/>
      <point x="406" y="-116" type="curve" smooth="yes"/>
      <point x="374" y="-116"/>
      <point x="350" y="-110"/>
      <point x="336" y="-98" type="curve"/>
      <point x="329" y="-107"/>
      <point x="325" y="-122"/>
      <point x="325" y="-138" type="curve" smooth="yes"/>
      <point x="325" y="-180"/>
      <point x="352" y="-205"/>
    </contour>
    <component base="p"/>
  </outline>
</glyph>
<glyph name="uni1D8F" format="2">
  <advance width="523"/>
  <unicode hex="1D8F"/>
  <anchor x="262" y="0" name="bottom"/>
  <anchor x="262" y="536" name="top"/>
  <anchor x="503" y="536" name="topright"/>
  <outline>
    <contour>
      <point x="582" y="-205" type="curve" smooth="yes"/>
      <point x="634" y="-205"/>
      <point x="661" y="-180"/>
      <point x="661" y="-138" type="curve" smooth="yes"/>
      <point x="661" y="-122"/>
      <point x="657" y="-107"/>
      <point x="650" y="-98" type="curve"/>
      <point x="636" y="-110"/>
      <point x="612" y="-116"/>
      <point x="580" y="-116" type="curve" smooth="yes"/>
      <point x="521" y="-116"/>
      <point x="502" y="-96"/>
      <point x="502" y="-34" type="curve" smooth="yes"/>
      <point x="502" y="10" type="line"/>
      <point x="492" y="10" type="line"/>
      <point x="492" y="-49" type="line" smooth="yes"/>
      <point x="492" y="-168"/>
      <point x="518" y="-205"/>
    </contour>
    <component base="a"/>
  </outline>
</glyph>
<glyph name="uni1D94" format="2">
  <advance width="475"/>
  <unicode hex="1D94"/>
  <anchor x="253" y="0" name="bottom"/>
  <anchor x="233" y="536" name="top"/>
  <outline>
    <contour>
      <point x="124" y="-205" type="curve" smooth="yes"/>
      <point x="176" y="-205"/>
      <point x="203" y="-180"/>
      <point x="203" y="-138" type="curve" smooth="yes"/>
      <point x="203" y="-122"/>
      <point x="199" y="-107"/>
      <point x="192" y="-98" type="curve"/>
      <point x="178" y="-110"/>
      <point x="154" y="-116"/>
      <point x="122" y="-116" type="curve" smooth="yes"/>
      <point x="63" y="-116"/>
      <point x="44" y="-96"/>
      <point x="44" y="-34" type="curve" smooth="yes"/>
      <point x="44" y="103" type="line"/>
      <point x="34" y="103" type="line"/>
      <point x="34" y="-49" type="line" smooth="yes"/>
      <point x="34" y="-168"/>
      <point x="60" y="-205"/>
    </contour>
    <component base="afii10073"/>
  </outline>
</glyph>
<glyph name="uni1FC1" format="2">
  <advance width="225"/>
  <unicode hex="1FC1"/>
  <anchor x="114" y="536" name="_top"/>
  <outline>
    <contour>
      <point x="-50" y="755" type="curve"/>
      <point x="-41" y="755" type="line"/>
      <point x="-32" y="790"/>
      <point x="-16" y="807"/>
      <point x="11" y="807" type="curve" smooth="yes"/>
      <point x="47" y="807"/>
      <point x="130" y="759"/>
      <point x="189" y="759" type="curve" smooth="yes"/>
      <point x="247" y="759"/>
      <point x="267" y="806"/>
      <point x="275" y="879" type="curve"/>
      <point x="266" y="879" type="line"/>
      <point x="258" y="844"/>
      <point x="242" y="827"/>
      <point x="214" y="827" type="curve" smooth="yes"/>
      <point x="153" y="827"/>
      <point x="97" y="875"/>
      <point x="39" y="875" type="curve" smooth="yes"/>
      <point x="-20" y="875"/>
      <point x="-42" y="827"/>
    </contour>
    <contour>
      <point x="18" y="599" type="curve" smooth="yes"/>
      <point x="43" y="599"/>
      <point x="66" y="616"/>
      <point x="66" y="661" type="curve" smooth="yes"/>
      <point x="66" y="707"/>
      <point x="43" y="723"/>
      <point x="18" y="723" type="curve" smooth="yes"/>
      <point x="-6" y="723"/>
      <point x="-28" y="707"/>
      <point x="-28" y="661" type="curve" smooth="yes"/>
      <point x="-28" y="616"/>
      <point x="-6" y="599"/>
    </contour>
    <contour>
      <point x="206" y="599" type="curve" smooth="yes"/>
      <point x="229" y="599"/>
      <point x="252" y="616"/>
      <point x="252" y="661" type="curve" smooth="yes"/>
      <point x="252" y="707"/>
      <point x="229" y="723"/>
      <point x="206" y="723" type="curve" smooth="yes"/>
      <point x="180" y="723"/>
      <point x="158" y="707"/>
      <point x="158" y="661" type="curve" smooth="yes"/>
      <point x="158" y="616"/>
      <point x="180" y="599"/>
    </contour>
  </outline>
</glyph>
<glyph name="uni1FEF" format="2">
  <unicode hex="1FEF"/>
  <anchor x="353" y="536" name="_top"/>
  <anchor x="353" y="760" name="top"/>
  <outline>
    <contour>
      <point x="409" y="590" type="curve"/>
      <point x="423" y="590" type="line"/>
      <point x="423" y="605" type="line"/>
      <point x="410" y="653"/>
      <point x="401" y="712"/>
      <point x="397" y="760" type="curve"/>
      <point x="288" y="760" type="line"/>
      <point x="288" y="748" type="line"/>
      <point x="316" y="698"/>
      <point x="358" y="642"/>
    </contour>
  </outline>
</glyph>
<glyph name="uni1FFD" format="2">
  <advance width="683"/>
  <unicode hex="1FFD"/>
  <anchor x="332" y="536" name="_top"/>
  <anchor x="332" y="760" name="top"/>
  <outline>
    <contour>
      <point x="264" y="590" type="line"/>
      <point x="278" y="590" type="line"/>
      <point x="329" y="642"/>
      <point x="370" y="698"/>
      <point x="399" y="748" type="curve"/>
      <point x="399" y="760" type="line"/>
      <point x="289" y="760" type="line"/>
      <point x="286" y="712"/>
      <point x="277" y="653"/>
      <point x="264" y="605" type="curve"/>
    </contour>
  </outline>
</glyph>
<glyph name="quotedblright" format="2">
  <advance width="432"/>
  <unicode hex="201D"/>
  <outline>
    <contour>
      <point x="37" y="402" type="line"/>
      <point x="152" y="436"/>
      <point x="195" y="513"/>
      <point x="195" y="598" type="curve" smooth="yes"/>
      <point x="195" y="669"/>
      <point x="165" y="714"/>
      <point x="112" y="714" type="curve" smooth="yes"/>
      <point x="73" y="714"/>
      <point x="45" y="692"/>
      <point x="45" y="638" type="curve" smooth="yes"/>
      <point x="45" y="540"/>
      <point x="136" y="569"/>
      <point x="136" y="503" type="curve" smooth="yes"/>
      <point x="136" y="449"/>
      <point x="74" y="423"/>
      <point x="37" y="413" type="curve"/>
    </contour>
    <contour>
      <point x="238" y="402" type="line"/>
      <point x="353" y="436"/>
      <point x="396" y="513"/>
      <point x="396" y="598" type="curve" smooth="yes"/>
      <point x="396" y="669"/>
      <point x="366" y="714"/>
      <point x="313" y="714" type="curve" smooth="yes"/>
      <point x="274" y="714"/>
      <point x="246" y="692"/>
      <point x="246" y="638" type="curve" smooth="yes"/>
      <point x="246" y="540"/>
      <point x="337" y="569"/>
      <point x="337" y="503" type="curve" smooth="yes"/>
      <point x="337" y="449"/>
      <point x="275" y="423"/>
      <point x="238" y="413" type="curve"/>
    </contour>
  </outline>
</glyph>
<glyph name="guilsinglright" format="2">
  <advance width="309"/>
  <unicode hex="203A"/>
  <outline>
    <contour>
      <point x="53" y="70" type="line"/>
      <point x="67" y="70" type="line"/>
      <point x="256" y="265" type="line"/>
      <point x="256" y="275" type="line"/>
      <point x="67" y="470" type="line"/>
      <point x="53" y="470" type="line"/>
      <point x="145" y="270" type="line"/>
    </contour>
  </outline>
</glyph>
<glyph name="parenleftsuperior" format="2">
  <advance width="208"/>
  <unicode hex="207D"/>
  <outline>
    <contour>
      <point x="202" y="196" type="curve"/>
      <point x="202" y="206" type="line"/>
      <point x="124" y="269"/>
      <point x="107" y="335"/>
      <point x="107" y="491" type="curve" smooth="yes"/>
      <point x="107" y="644"/>
      <point x="124" y="714"/>
      <point x="202" y="778" type="curve"/>
      <point x="202" y="788" type="line"/>
      <point x="81" y="737"/>
      <point x="13" y="674"/>
      <point x="13" y="491" type="curve" smooth="yes"/>
      <point x="13" y="302"/>
      <point x="73" y="247"/>
    </contour>
  </outline>
</glyph>
<glyph name="parenrightsuperior" format="2">
  <advance width="208"/>
  <unicode hex="207E"/>
  <outline>
    <contour>
      <point x="6" y="196" type="line"/>
      <point x="135" y="247"/>
      <point x="195" y="302"/>
      <point x="195" y="491" type="curve" smooth="yes"/>
      <point x="195" y="674"/>
      <point x="127" y="737"/>
      <point x="6" y="788" type="curve"/>
      <point x="6" y="778" type="line"/>
      <point x="84" y="714"/>
      <point x="101" y="644"/>
      <point x="101" y="491" type="curve" smooth="yes"/>
      <point x="101" y="335"/>
      <point x="84" y="269"/>
      <point x="6" y="206" type="curve"/>
    </contour>
  </outline>
</glyph>
<glyph name="uni20A5" format="2">
  <advance width="847"/>
  <unicode hex="20A5"/>
  <anchor x="424" y="0" name="bottom"/>
  <anchor x="424" y="536" name="top"/>
  <anchor x="827" y="536" name="topright"/>
  <outline>
    <contour>
      <point x="286" y="-125" type="line"/>
      <point x="296" y="-125" type="line"/>
      <point x="586" y="666" type="line"/>
      <point x="576" y="666" type="line"/>
    </contour>
    <component base="m"/>
  </outline>
</glyph>
<glyph name="uni20A9" format="2">
  <advance width="902"/>
  <unicode hex="20A9"/>
  <outline>
    <contour>
      <point x="226" y="0" type="line"/>
      <point x="339" y="0" type="line"/>
      <point x="411" y="323" type="line"/>
      <point x="496" y="323" type="line"/>
      <point x="584" y="0" type="line"/>
      <point x="667" y="0" type="line"/>
      <point x="736" y="323" type="line"/>
      <point x="895" y="323" type="line"/>
      <point x="895" y="333" type="line"/>
      <point x="738" y="333" type="line"/>
      <point x="760" y="439" type="line"/>
      <point x="895" y="439" type="line"/>
      <point x="895" y="449" type="line"/>
      <point x="762" y="449" type="line"/>
      <point x="800" y="626" type="line" smooth="yes"/>
      <point x="814" y="692"/>
      <point x="831" y="704"/>
      <point x="863" y="704" type="curve" smooth="yes"/>
      <point x="908" y="704" type="line"/>
      <point x="908" y="714" type="line"/>
      <point x="691" y="714" type="line"/>
      <point x="691" y="704" type="line"/>
      <point x="740" y="704" type="line" smooth="yes"/>
      <point x="776" y="704"/>
      <point x="792" y="693"/>
      <point x="792" y="661" type="curve" smooth="yes"/>
      <point x="792" y="649"/>
      <point x="790" y="627"/>
      <point x="785" y="604" type="curve" smooth="yes"/>
      <point x="752" y="449" type="line"/>
      <point x="626" y="449" type="line"/>
      <point x="550" y="707" type="line"/>
      <point x="486" y="707" type="line"/>
      <point x="429" y="449" type="line"/>
      <point x="292" y="449" type="line"/>
      <point x="261" y="597" type="line" smooth="yes"/>
      <point x="257" y="617"/>
      <point x="252" y="648"/>
      <point x="252" y="659" type="curve" smooth="yes"/>
      <point x="252" y="690"/>
      <point x="268" y="704"/>
      <point x="301" y="704" type="curve" smooth="yes"/>
      <point x="332" y="704" type="line"/>
      <point x="332" y="714" type="line"/>
      <point x="-5" y="714" type="line"/>
      <point x="-5" y="704" type="line"/>
      <point x="28" y="704" type="line" smooth="yes"/>
      <point x="49" y="704"/>
      <point x="66" y="693"/>
      <point x="76" y="651" type="curve" smooth="yes"/>
      <point x="123" y="449" type="line"/>
      <point x="7" y="449" type="line"/>
      <point x="7" y="439" type="line"/>
      <point x="125" y="439" type="line"/>
      <point x="149" y="333" type="line"/>
      <point x="7" y="333" type="line"/>
      <point x="7" y="323" type="line"/>
      <point x="152" y="323" type="line"/>
    </contour>
    <contour>
      <point x="356" y="121" type="line"/>
      <point x="318" y="323" type="line"/>
      <point x="400" y="323" type="line"/>
    </contour>
    <contour>
      <point x="316" y="333" type="line"/>
      <point x="294" y="439" type="line"/>
      <point x="426" y="439" type="line"/>
      <point x="403" y="333" type="line"/>
    </contour>
    <contour>
      <point x="698" y="191" type="line"/>
      <point x="663" y="323" type="line"/>
      <point x="725" y="323" type="line"/>
    </contour>
    <contour>
      <point x="413" y="333" type="line"/>
      <point x="436" y="439" type="line"/>
      <point x="465" y="439" type="line"/>
      <point x="493" y="333" type="line"/>
    </contour>
    <contour>
      <point x="439" y="449" type="line"/>
      <point x="449" y="496" type="line"/>
      <point x="462" y="449" type="line"/>
    </contour>
    <contour>
      <point x="660" y="333" type="line"/>
      <point x="629" y="439" type="line"/>
      <point x="750" y="439" type="line"/>
      <point x="727" y="333" type="line"/>
    </contour>
  </outline>
</glyph>
<glyph name="Euro" format="2">
  <advance width="466"/>
  <unicode hex="20AC"/>
  <outline>
    <contour>
      <point x="294" y="-10" type="curve" smooth="yes"/>
      <point x="408" y="-10"/>
      <point x="456" y="50"/>
      <point x="456" y="101" type="curve" smooth="yes"/>
      <point x="456" y="137"/>
      <point x="435" y="162"/>
      <point x="400" y="166" type="curve"/>
      <point x="390" y="44"/>
      <point x="366" y="1"/>
      <point x="307" y="1" type="curve" smooth="yes"/>
      <point x="237" y="1"/>
      <point x="209" y="78"/>
      <point x="204" y="291" type="curve"/>
      <point x="318" y="291" type="line"/>
      <point x="318" y="301" type="line"/>
      <point x="204" y="301" type="line"/>
      <point x="202" y="321"/>
      <point x="202" y="341"/>
      <point x="202" y="363" type="curve" smooth="yes"/>
      <point x="202" y="380"/>
      <point x="202" y="398"/>
      <point x="203" y="415" type="curve"/>
      <point x="351" y="415" type="line"/>
      <point x="351" y="425" type="line"/>
      <point x="203" y="425" type="line"/>
      <point x="206" y="636"/>
      <point x="227" y="712"/>
      <point x="277" y="712" type="curve" smooth="yes"/>
      <point x="318" y="712"/>
      <point x="333" y="665"/>
      <point x="333" y="530" type="curve"/>
      <point x="419" y="530"/>
      <point x="459" y="555"/>
      <point x="459" y="607" type="curve" smooth="yes"/>
      <point x="459" y="669"/>
      <point x="395" y="722"/>
      <point x="291" y="722" type="curve" smooth="yes"/>
      <point x="143" y="722"/>
      <point x="65" y="624"/>
      <point x="50" y="425" type="curve"/>
      <point x="14" y="425" type="line"/>
      <point x="14" y="415" type="line"/>
      <point x="50" y="415" type="line"/>
      <point x="49" y="395"/>
      <point x="48" y="375"/>
      <point x="48" y="353" type="curve" smooth="yes"/>
      <point x="48" y="335"/>
      <point x="48" y="318"/>
      <point x="49" y="301" type="curve"/>
      <point x="14" y="301" type="line"/>
      <point x="14" y="291" type="line"/>
      <point x="50" y="291" type="line"/>
      <point x="62" y="84"/>
      <point x="140" y="-10"/>
    </contour>
  </outline>
</glyph>
<glyph name="uni20AE" format="2">
  <advance width="569"/>
  <unicode hex="20AE"/>
  <anchor x="284" y="0" name="bottom"/>
  <anchor x="284" y="357" name="center"/>
  <anchor x="284" y="714" name="top"/>
  <anchor x="588" y="714" name="topright"/>
  <outline>
    <contour>
      <point x="95" y="299" type="line"/>
      <point x="470" y="470" type="line"/>
      <point x="466" y="479" type="line"/>
      <point x="91" y="308" type="line"/>
    </contour>
    <contour>
      <point x="95" y="142" type="line"/>
      <point x="470" y="313" type="line"/>
      <point x="466" y="322" type="line"/>
      <point x="91" y="151" type="line"/>
    </contour>
    <component base="T"/>
  </outline>
</glyph>
<glyph name="uni20B3" format="2">
  <advance width="597"/>
  <unicode hex="20B3"/>
  <anchor x="299" y="0" name="bottom"/>
  <anchor x="299" y="714" name="top"/>
  <outline>
    <contour>
      <point x="20" y="362" type="line"/>
      <point x="583" y="362" type="line"/>
      <point x="583" y="372" type="line"/>
      <point x="20" y="372" type="line"/>
    </contour>
    <contour>
      <point x="20" y="215" type="line"/>
      <point x="583" y="215" type="line"/>
      <point x="583" y="225" type="line"/>
      <point x="20" y="225" type="line"/>
    </contour>
    <component base="Lambda"/>
  </outline>
</glyph>
<glyph name="uni20B4" format="2">
  <advance width="504"/>
  <unicode hex="20B4"/>
  <anchor x="247" y="0" name="bottom"/>
  <anchor x="247" y="714" name="top"/>
  <anchor x="15" y="714" name="topright"/>
  <outline>
    <contour>
      <point x="262" y="-10" type="curve" smooth="yes"/>
      <point x="442" y="-10"/>
      <point x="479" y="70"/>
      <point x="479" y="131" type="curve" smooth="yes"/>
      <point x="479" y="205"/>
      <point x="424" y="229"/>
      <point x="368" y="229" type="curve"/>
      <point x="368" y="74"/>
      <point x="328" y="1"/>
      <point x="238" y="1" type="curve" smooth="yes"/>
      <point x="170" y="1"/>
      <point x="133" y="43"/>
      <point x="133" y="117" type="curve" smooth="yes"/>
      <point x="133" y="224"/>
      <point x="209" y="258"/>
      <point x="300" y="302" type="curve" smooth="yes"/>
      <point x="426" y="363"/>
      <point x="461" y="432"/>
      <point x="461" y="516" type="curve" smooth="yes"/>
      <point x="461" y="648"/>
      <point x="363" y="724"/>
      <point x="236" y="724" type="curve" smooth="yes"/>
      <point x="101" y="724"/>
      <point x="43" y="661"/>
      <point x="43" y="598" type="curve" smooth="yes"/>
      <point x="43" y="553"/>
      <point x="74" y="519"/>
      <point x="164" y="519" type="curve"/>
      <point x="164" y="655"/>
      <point x="192" y="714"/>
      <point x="254" y="714" type="curve" smooth="yes"/>
      <point x="297" y="714"/>
      <point x="349" y="685"/>
      <point x="349" y="604" type="curve" smooth="yes"/>
      <point x="349" y="526"/>
      <point x="306" y="486"/>
      <point x="182" y="429" type="curve" smooth="yes"/>
      <point x="55" y="370"/>
      <point x="19" y="304"/>
      <point x="19" y="216" type="curve" smooth="yes"/>
      <point x="19" y="76"/>
      <point x="114" y="-10"/>
    </contour>
    <contour>
      <point x="-17" y="303" type="line"/>
      <point x="506" y="303" type="line"/>
      <point x="506" y="313" type="line"/>
      <point x="-17" y="313" type="line"/>
    </contour>
    <contour>
      <point x="-17" y="429" type="line"/>
      <point x="506" y="429" type="line"/>
      <point x="506" y="439" type="line"/>
      <point x="-17" y="439" type="line"/>
    </contour>
  </outline>
</glyph>
<glyph name="versicle" format="2">
  <advance width="596"/>
  <unicode hex="2123"/>
  <anchor x="298" y="0" name="bottom"/>
  <anchor x="298" y="714" name="top"/>
  <anchor x="616" y="714" name="topright"/>
  <outline>
    <contour>
      <point x="111" y="-125" type="line"/>
      <point x="121" y="-125" type="line"/>
      <point x="463" y="811" type="line"/>
      <point x="282" y="891" type="line"/>
      <point x="279" y="882" type="line"/>
      <point x="451" y="806" type="line"/>
    </contour>
    <component base="V"/>
  </outline>
</glyph>
<glyph name="uni2C63" format="2">
  <advance width="553"/>
  <unicode hex="2C63"/>
  <anchor x="277" y="0" name="bottom"/>
  <anchor x="277" y="714" name="top"/>
  <anchor x="583" y="714" name="topright"/>
  <outline>
    <contour>
      <point x="11" y="484" type="line"/>
      <point x="341" y="484" type="line"/>
      <point x="341" y="494" type="line"/>
      <point x="11" y="494" type="line"/>
    </contour>
    <component base="P"/>
  </outline>
</glyph>
<glyph name="upwardsancora" format="2">
  <advance width="625"/>
  <unicode hex="2E15"/>
  <outline>
    <contour>
      <point x="100" y="71" type="line"/>
      <point x="465" y="476" type="line"/>
      <point x="502" y="433"/>
      <point x="520" y="393"/>
      <point x="520" y="348" type="curve" smooth="yes"/>
      <point x="520" y="324"/>
      <point x="515" y="299"/>
      <point x="504" y="272" type="curve"/>
      <point x="518" y="257" type="line"/>
      <point x="532" y="290"/>
      <point x="539" y="321"/>
      <point x="539" y="350" type="curve" smooth="yes"/>
      <point x="539" y="399"/>
      <point x="518" y="446"/>
      <point x="476" y="492" type="curve" smooth="yes"/>
      <point x="430" y="542"/>
      <point x="385" y="566"/>
      <point x="334" y="566" type="curve" smooth="yes"/>
      <point x="310" y="566"/>
      <point x="283" y="561"/>
      <point x="255" y="549" type="curve"/>
      <point x="267" y="535" type="line"/>
      <point x="290" y="544"/>
      <point x="312" y="549"/>
      <point x="332" y="549" type="curve" smooth="yes"/>
      <point x="374" y="549"/>
      <point x="412" y="530"/>
      <point x="452" y="490" type="curve"/>
      <point x="86" y="85" type="line"/>
    </contour>
  </outline>
</glyph>
<glyph name="uniA680" format="2">
  <advance width="606"/>
  <unicode hex="A680"/>
  <anchor x="303" y="0" name="bottom"/>
  <anchor x="303" y="714" name="top"/>
  <outline>
    <contour>
      <point x="211" y="714" type="line"/>
      <point x="226" y="714" type="line"/>
      <point x="226" y="863" type="line"/>
      <point x="211" y="863" type="line"/>
    </contour>
    <component base="afii10021"/>
  </outline>
</glyph>
<glyph name="uniA743" format="2">
  <advance width="562"/>
  <unicode hex="A743"/>
  <anchor x="281" y="760" name="top"/>
  <anchor x="281" y="0" name="bottom"/>
  <anchor x="412" y="900" name="topright"/>
  <outline>
    <contour>
      <point x="278" y="104" type="line"/>
      <point x="501" y="263" type="line"/>
      <point x="495" y="271" type="line"/>
      <point x="272" y="112" type="line"/>
    </contour>
    <component base="k"/>
  </outline>
</glyph>
<glyph name="uniA744" format="2">
  <advance width="652"/>
  <unicode hex="A744"/>
  <anchor x="326" y="0" name="bottom"/>
  <anchor x="326" y="714" name="top"/>
  <anchor x="632" y="714" name="topright"/>
  <outline>
    <contour>
      <point x="18" y="556" type="line"/>
      <point x="339" y="556" type="line"/>
      <point x="339" y="566" type="line"/>
      <point x="18" y="566" type="line"/>
    </contour>
    <contour>
      <point x="292" y="128" type="line"/>
      <point x="529" y="327" type="line"/>
      <point x="523" y="335" type="line"/>
      <point x="286" y="136" type="line"/>
    </contour>
    <component base="K"/>
  </outline>
</glyph>
<glyph name="uniA748" format="2">
  <advance width="677"/>
  <unicode hex="A748"/>
  <anchor x="282" y="0" name="bottom"/>
  <anchor x="174" y="357" name="center"/>
  <anchor x="180" y="714" name="top"/>
  <anchor x="544" y="714" name="topright"/>
  <outline>
    <contour>
      <point x="10" y="553" type="line"/>
      <point x="345" y="553" type="line"/>
      <point x="345" y="563" type="line"/>
      <point x="10" y="563" type="line"/>
    </contour>
    <component base="L"/>
  </outline>
</glyph>
<glyph name="uniA749" format="2">
  <advance width="320"/>
  <unicode hex="A749"/>
  <anchor x="160" y="0" name="bottom"/>
  <anchor x="160" y="268" name="center"/>
  <anchor x="160" y="760" name="top"/>
  <anchor x="299" y="760" name="topright"/>
  <outline>
    <contour>
      <point x="-9" y="601" type="line"/>
      <point x="320" y="601" type="line"/>
      <point x="320" y="611" type="line"/>
      <point x="-9" y="611" type="line"/>
    </contour>
    <component base="l"/>
  </outline>
</glyph>
<glyph name="uniA75E" format="2">
  <advance width="596"/>
  <unicode hex="A75E"/>
  <anchor x="298" y="0" name="bottom"/>
  <anchor x="358" y="714" name="top"/>
  <anchor x="616" y="714" name="topright"/>
  <outline>
    <contour>
      <point x="126" y="0" type="line"/>
      <point x="136" y="0" type="line"/>
      <point x="356" y="714" type="line"/>
      <point x="346" y="714" type="line"/>
    </contour>
    <component base="V"/>
  </outline>
</glyph>
<glyph name="uniA75F" format="2">
  <advance width="522"/>
  <unicode hex="A75F"/>
  <anchor x="271" y="0" name="bottom"/>
  <anchor x="271" y="536" name="top"/>
  <anchor x="532" y="536" name="topright"/>
  <outline>
    <contour>
      <point x="133" y="-50" type="line"/>
      <point x="143" y="-50" type="line"/>
      <point x="365" y="596" type="line"/>
      <point x="355" y="596" type="line"/>
    </contour>
    <component base="v"/>
  </outline>
</glyph>
<glyph name="uniA765" format="2">
  <advance width="557"/>
  <unicode hex="A765"/>
  <anchor x="279" y="-240" name="bottom"/>
  <anchor x="279" y="760" name="top"/>
  <outline>
    <contour>
      <point x="13" y="601" type="line"/>
      <point x="332" y="601" type="line"/>
      <point x="332" y="611" type="line"/>
      <point x="13" y="611" type="line"/>
    </contour>
    <component base="thorn"/>
  </outline>
</glyph>
<glyph name="uniA78C" format="2">
  <advance width="349"/>
  <unicode hex="A78C"/>
  <outline>
    <contour>
      <point x="167" y="401" type="line"/>
      <point x="182" y="401" type="line"/>
      <point x="265" y="714" type="line"/>
      <point x="84" y="714" type="line"/>
    </contour>
  </outline>
</glyph>
<glyph name="uniA7A1" format="2">
  <advance width="480"/>
  <unicode hex="A7A1"/>
  <anchor x="240" y="-234" name="bottom"/>
  <anchor x="230" y="536" name="top"/>
  <anchor x="510" y="536" name="topright"/>
  <outline>
    <contour>
      <point x="-17" y="313" type="line"/>
      <point x="480" y="408" type="line"/>
      <point x="480" y="418" type="line"/>
      <point x="-17" y="323" type="line"/>
    </contour>
    <component base="g"/>
  </outline>
</glyph>
<glyph name="uniA7A2" format="2">
  <advance width="781"/>
  <unicode hex="A7A2"/>
  <anchor x="326" y="0" name="bottom"/>
  <anchor x="326" y="714" name="top"/>
  <anchor x="632" y="714" name="topright"/>
  <outline>
    <contour>
      <point x="21" y="138" type="line"/>
      <point x="602" y="283" type="line"/>
      <point x="602" y="293" type="line"/>
      <point x="21" y="148" type="line"/>
    </contour>
    <component base="K"/>
  </outline>
</glyph>
<glyph name="uniA7A3" format="2">
  <advance width="562"/>
  <unicode hex="A7A3"/>
  <anchor x="281" y="760" name="top"/>
  <anchor x="281" y="0" name="bottom"/>
  <anchor x="412" y="900" name="topright"/>
  <outline>
    <contour>
      <point x="23" y="114" type="line"/>
      <point x="520" y="209" type="line"/>
      <point x="520" y="219" type="line"/>
      <point x="23" y="124" type="line"/>
    </contour>
    <component base="k"/>
  </outline>
</glyph>
<glyph name="uniA7A6" format="2">
  <advance width="753"/>
  <unicode hex="A7A6"/>
  <anchor x="314" y="0" name="bottom"/>
  <anchor x="314" y="714" name="top"/>
  <anchor x="608" y="714" name="topright"/>
  <outline>
    <contour>
      <point x="21" y="427" type="line"/>
      <point x="629" y="572" type="line"/>
      <point x="629" y="582" type="line"/>
      <point x="21" y="437" type="line"/>
    </contour>
    <component base="R"/>
  </outline>
</glyph>
<glyph name="uniA7A7" format="2">
  <advance width="468"/>
  <unicode hex="A7A7"/>
  <anchor x="164" y="0" name="bottom"/>
  <anchor x="234" y="536" name="top"/>
  <anchor x="488" y="536" name="topright"/>
  <outline>
    <contour>
      <point x="3" y="194" type="line"/>
      <point x="341" y="265" type="line"/>
      <point x="341" y="275" type="line"/>
      <point x="3" y="204" type="line"/>
    </contour>
    <component base="r"/>
  </outline>
</glyph>
<glyph name="uniA7A8" format="2">
  <advance width="504"/>
  <unicode hex="A7A8"/>
  <anchor x="252" y="0" name="bottom"/>
  <anchor x="252" y="714" name="top"/>
  <anchor x="484" y="714" name="topright"/>
  <outline>
    <contour>
      <point x="13" y="290" type="line"/>
      <point x="503" y="427" type="line"/>
      <point x="503" y="437" type="line"/>
      <point x="13" y="300" type="line"/>
    </contour>
    <component base="S"/>
  </outline>
</glyph>
<glyph name="uniA7A9" format="2">
  <advance width="419"/>
  <unicode hex="A7A9"/>
  <anchor x="210" y="0" name="bottom"/>
  <anchor x="210" y="536" name="top"/>
  <anchor x="399" y="536" name="topright"/>
  <outline>
    <contour>
      <point x="14" y="225" type="line"/>
      <point x="404" y="326" type="line"/>
      <point x="404" y="336" type="line"/>
      <point x="14" y="235" type="line"/>
    </contour>
    <component base="s"/>
  </outline>
</glyph>
<glyph name="uniA7AE" format="2">
  <advance width="519"/>
  <unicode hex="A7AE"/>
  <outline>
    <contour>
      <point x="27" y="0" type="line"/>
      <point x="492" y="0" type="line"/>
      <point x="499" y="184" type="line"/>
      <point x="489" y="184" type="line"/>
      <point x="486" y="151" type="line" smooth="yes"/>
      <point x="477" y="49"/>
      <point x="446" y="10"/>
      <point x="366" y="10" type="curve" smooth="yes"/>
      <point x="343" y="10" type="line"/>
      <point x="343" y="704" type="line"/>
      <point x="365" y="704" type="line" smooth="yes"/>
      <point x="440" y="704"/>
      <point x="477" y="665"/>
      <point x="485" y="564" type="curve" smooth="yes"/>
      <point x="488" y="530" type="line"/>
      <point x="498" y="530" type="line"/>
      <point x="492" y="714" type="line"/>
      <point x="27" y="714" type="line"/>
      <point x="21" y="530" type="line"/>
      <point x="31" y="530" type="line"/>
      <point x="34" y="564" type="line" smooth="yes"/>
      <point x="42" y="665"/>
      <point x="79" y="704"/>
      <point x="154" y="704" type="curve" smooth="yes"/>
      <point x="176" y="704" type="line"/>
      <point x="176" y="10" type="line"/>
      <point x="153" y="10" type="line" smooth="yes"/>
      <point x="73" y="10"/>
      <point x="42" y="49"/>
      <point x="33" y="151" type="curve" smooth="yes"/>
      <point x="30" y="184" type="line"/>
      <point x="20" y="184" type="line"/>
    </contour>
  </outline>
</glyph>
<glyph name="uniA7B8" format="2">
  <advance width="642"/>
  <unicode hex="A7B8"/>
  <anchor x="321" y="0" name="bottom"/>
  <anchor x="372" y="714" name="top"/>
  <anchor x="652" y="714" name="topright"/>
  <outline>
    <contour>
      <point x="40" y="-11" type="line"/>
      <point x="50" y="-11" type="line"/>
      <point x="574" y="726" type="line"/>
      <point x="564" y="726" type="line"/>
    </contour>
    <component base="U"/>
  </outline>
</glyph>
<glyph name="uniA7B9" format="2">
  <advance width="577"/>
  <unicode hex="A7B9"/>
  <anchor x="289" y="0" name="bottom"/>
  <anchor x="289" y="536" name="top"/>
  <anchor x="547" y="536" name="topright"/>
  <outline>
    <contour>
      <point x="40" y="-11" type="line"/>
      <point x="50" y="-11" type="line"/>
      <point x="516" y="551" type="line"/>
      <point x="506" y="551" type="line"/>
    </contour>
    <component base="u"/>
  </outline>
</glyph>
<glyph name="uniA7C4" format="2">
  <advance width="591"/>
  <unicode hex="A7C4"/>
  <anchor x="358" y="-10" name="bottom"/>
  <anchor x="336" y="714" name="top"/>
  <anchor x="571" y="714" name="topright"/>
  <outline>
    <contour>
      <point x="555" y="-16" type="curve" smooth="yes"/>
      <point x="555" y="124" type="line"/>
      <point x="547" y="122" type="line"/>
      <point x="547" y="-10" type="line" smooth="yes"/>
      <point x="547" y="-127"/>
      <point x="516" y="-158"/>
      <point x="475" y="-158" type="curve" smooth="yes"/>
      <point x="409" y="-158"/>
      <point x="436" y="-69"/>
      <point x="361" y="-69" type="curve" smooth="yes"/>
      <point x="316" y="-69"/>
      <point x="291" y="-97"/>
      <point x="291" y="-137" type="curve" smooth="yes"/>
      <point x="291" y="-192"/>
      <point x="333" y="-220"/>
      <point x="409" y="-220" type="curve" smooth="yes"/>
      <point x="498" y="-220"/>
      <point x="555" y="-169"/>
    </contour>
    <component base="C"/>
  </outline>
</glyph>
<glyph name="uniA7C5" format="2">
  <advance width="504"/>
  <unicode hex="A7C5"/>
  <anchor x="246" y="-10" name="bottom"/>
  <anchor x="252" y="714" name="top"/>
  <anchor x="484" y="714" name="topright"/>
  <outline>
    <contour>
      <point x="20" y="-16" type="line"/>
      <point x="20" y="-169"/>
      <point x="77" y="-220"/>
      <point x="166" y="-220" type="curve" smooth="yes"/>
      <point x="242" y="-220"/>
      <point x="284" y="-192"/>
      <point x="284" y="-137" type="curve" smooth="yes"/>
      <point x="284" y="-97"/>
      <point x="259" y="-69"/>
      <point x="214" y="-69" type="curve" smooth="yes"/>
      <point x="139" y="-69"/>
      <point x="166" y="-158"/>
      <point x="100" y="-158" type="curve" smooth="yes"/>
      <point x="59" y="-158"/>
      <point x="28" y="-127"/>
      <point x="28" y="-10" type="curve" smooth="yes"/>
      <point x="28" y="127" type="line"/>
      <point x="20" y="129" type="line"/>
    </contour>
    <component base="S"/>
  </outline>
</glyph>
<glyph name="uniA7C6" format="2">
  <advance width="601"/>
  <unicode hex="A7C6"/>
  <anchor x="294" y="0" name="bottom"/>
  <anchor x="294" y="714" name="top"/>
  <anchor x="574" y="714" name="topright"/>
  <outline>
    <contour>
      <point x="556" y="-16" type="curve" smooth="yes"/>
      <point x="556" y="24" type="line"/>
      <point x="548" y="22" type="line"/>
      <point x="548" y="-10" type="line" smooth="yes"/>
      <point x="548" y="-127"/>
      <point x="517" y="-158"/>
      <point x="476" y="-158" type="curve" smooth="yes"/>
      <point x="410" y="-158"/>
      <point x="437" y="-69"/>
      <point x="362" y="-69" type="curve" smooth="yes"/>
      <point x="317" y="-69"/>
      <point x="292" y="-97"/>
      <point x="292" y="-137" type="curve" smooth="yes"/>
      <point x="292" y="-192"/>
      <point x="334" y="-220"/>
      <point x="410" y="-220" type="curve" smooth="yes"/>
      <point x="499" y="-220"/>
      <point x="556" y="-169"/>
    </contour>
    <component base="Z"/>
  </outline>
</glyph>
<glyph name="uniA7C8" format="2">
  <advance width="563"/>
  <unicode hex="A7C8"/>
  <anchor x="282" y="0" name="bottom"/>
  <anchor x="282" y="268" name="center"/>
  <anchor x="282" y="760" name="top"/>
  <anchor x="543" y="760" name="topright"/>
  <outline>
    <contour>
      <point x="120" y="266" type="line"/>
      <point x="397" y="266" type="line"/>
      <point x="397" y="276" type="line"/>
      <point x="120" y="276" type="line"/>
    </contour>
    <component base="d"/>
  </outline>
</glyph>
<glyph name="uniA7C9" format="2">
  <advance width="504"/>
  <unicode hex="A7C9"/>
  <anchor x="246" y="-10" name="bottom"/>
  <anchor x="252" y="714" name="top"/>
  <anchor x="484" y="714" name="topright"/>
  <outline>
    <contour>
      <point x="8" y="365" type="line"/>
      <point x="499" y="365" type="line"/>
      <point x="499" y="375" type="line"/>
      <point x="8" y="375" type="line"/>
    </contour>
    <component base="S"/>
  </outline>
</glyph>
<glyph name="uniA7CA" format="2">
  <advance width="419"/>
  <unicode hex="A7CA"/>
  <anchor x="210" y="0" name="bottom"/>
  <anchor x="210" y="536" name="top"/>
  <anchor x="399" y="536" name="topright"/>
  <outline>
    <contour>
      <point x="5" y="273" type="line"/>
      <point x="414" y="273" type="line"/>
      <point x="414" y="283" type="line"/>
      <point x="5" y="283" type="line"/>
    </contour>
    <component base="s"/>
  </outline>
</glyph>
<glyph name="uniA7FF" format="2">
  <advance width="825"/>
  <unicode hex="A7FF"/>
  <outline>
    <contour>
      <point x="6" y="0" type="line"/>
      <point x="169" y="0" type="line"/>
      <point x="169" y="10" type="line"/>
      <point x="126" y="10" type="line" smooth="yes"/>
      <point x="95" y="10"/>
      <point x="91" y="17"/>
      <point x="91" y="30" type="curve" smooth="yes"/>
      <point x="91" y="42"/>
      <point x="95" y="66"/>
      <point x="102" y="98" type="curve" smooth="yes"/>
      <point x="156" y="359" type="line" smooth="yes"/>
      <point x="163" y="393"/>
      <point x="169" y="422"/>
      <point x="174" y="452" type="curve"/>
      <point x="176" y="452" type="line"/>
      <point x="181" y="428"/>
      <point x="186" y="404"/>
      <point x="192" y="380" type="curve" smooth="yes"/>
      <point x="281" y="0" type="line"/>
      <point x="367" y="0" type="line"/>
      <point x="461" y="383" type="line"/>
      <point x="566" y="0" type="line"/>
      <point x="656" y="0" type="line"/>
      <point x="754" y="477" type="line" smooth="yes"/>
      <point x="763" y="523"/>
      <point x="771" y="526"/>
      <point x="812" y="526" type="curve" smooth="yes"/>
      <point x="831" y="526" type="line"/>
      <point x="831" y="536" type="line"/>
      <point x="668" y="536" type="line"/>
      <point x="668" y="526" type="line"/>
      <point x="711" y="526" type="line" smooth="yes"/>
      <point x="742" y="526"/>
      <point x="746" y="519"/>
      <point x="746" y="506" type="curve" smooth="yes"/>
      <point x="746" y="494"/>
      <point x="742" y="470"/>
      <point x="735" y="438" type="curve" smooth="yes"/>
      <point x="688" y="208" type="line" smooth="yes"/>
      <point x="681" y="174"/>
      <point x="675" y="145"/>
      <point x="670" y="115" type="curve"/>
      <point x="668" y="115" type="line"/>
      <point x="659" y="156"/>
      <point x="651" y="188"/>
      <point x="642" y="221" type="curve" smooth="yes"/>
      <point x="553" y="536" type="line"/>
      <point x="489" y="536" type="line"/>
      <point x="409" y="208" type="line" smooth="yes"/>
      <point x="402" y="179"/>
      <point x="396" y="150"/>
      <point x="389" y="121" type="curve"/>
      <point x="387" y="121" type="line"/>
      <point x="381" y="153"/>
      <point x="376" y="176"/>
      <point x="371" y="197" type="curve" smooth="yes"/>
      <point x="292" y="536" type="line"/>
      <point x="181" y="536" type="line"/>
      <point x="83" y="59" type="line" smooth="yes"/>
      <point x="74" y="13"/>
      <point x="66" y="10"/>
      <point x="25" y="10" type="curve" smooth="yes"/>
      <point x="6" y="10" type="line"/>
    </contour>
  </outline>
</glyph>
<glyph name="uniAB41" format="2">
  <advance width="800"/>
  <unicode hex="AB41"/>
  <anchor x="403" y="535" name="bottom"/>
  <anchor x="403" y="-1" name="top"/>
  <outline>
    <contour>
      <point x="389" y="-66" type="line"/>
      <point x="400" y="-66" type="line"/>
      <point x="692" y="596" type="line"/>
      <point x="681" y="596" type="line"/>
    </contour>
    <component base="oe" xScale="-1" yScale="-1" xOffset="803" yOffset="535"/>
  </outline>
</glyph>
<glyph name="uniAB44" format="2">
  <advance width="824"/>
  <unicode hex="AB44"/>
  <outline>
    <contour>
      <point x="358" y="-40" type="line"/>
      <point x="369" y="-40" type="line"/>
      <point x="686" y="576" type="line"/>
      <point x="675" y="576" type="line"/>
    </contour>
    <component base="uniAB43"/>
  </outline>
</glyph>
<glyph name="uniAB60" format="2">
  <advance width="832"/>
  <unicode hex="AB60"/>
  <outline>
    <contour>
      <point x="331" y="0" type="line"/>
      <point x="627" y="0" type="line" smooth="yes"/>
      <point x="761" y="0"/>
      <point x="825" y="63"/>
      <point x="825" y="159" type="curve" smooth="yes"/>
      <point x="825" y="283"/>
      <point x="737" y="307"/>
      <point x="634" y="307" type="curve" smooth="yes"/>
      <point x="555" y="307" type="line"/>
      <point x="555" y="460" type="line" smooth="yes"/>
      <point x="555" y="504"/>
      <point x="570" y="526"/>
      <point x="615" y="526" type="curve" smooth="yes"/>
      <point x="626" y="526" type="line"/>
      <point x="626" y="536" type="line"/>
      <point x="331" y="536" type="line"/>
      <point x="331" y="531" type="line"/>
      <point x="339" y="531" type="line" smooth="yes"/>
      <point x="380" y="531"/>
      <point x="392" y="510"/>
      <point x="392" y="459" type="curve" smooth="yes"/>
      <point x="392" y="73" type="line" smooth="yes"/>
      <point x="392" y="29"/>
      <point x="382" y="10"/>
      <point x="339" y="10" type="curve" smooth="yes"/>
      <point x="331" y="10" type="line"/>
    </contour>
    <contour>
      <point x="12" y="0" type="line"/>
      <point x="297" y="0" type="line"/>
      <point x="297" y="10" type="line"/>
      <point x="287" y="10" type="line" smooth="yes"/>
      <point x="256" y="10"/>
      <point x="235" y="27"/>
      <point x="235" y="75" type="curve" smooth="yes"/>
      <point x="235" y="466" type="line" smooth="yes"/>
      <point x="235" y="516"/>
      <point x="256" y="531"/>
      <point x="287" y="531" type="curve" smooth="yes"/>
      <point x="297" y="531" type="line"/>
      <point x="297" y="536" type="line"/>
      <point x="12" y="536" type="line"/>
      <point x="12" y="531" type="line"/>
      <point x="21" y="531" type="line" smooth="yes"/>
      <point x="52" y="531"/>
      <point x="72" y="517"/>
      <point x="72" y="467" type="curve" smooth="yes"/>
      <point x="72" y="75" type="line" smooth="yes"/>
      <point x="72" y="23"/>
      <point x="54" y="10"/>
      <point x="21" y="10" type="curve" smooth="yes"/>
      <point x="12" y="10" type="line"/>
    </contour>
    <contour>
      <point x="555" y="10" type="line"/>
      <point x="555" y="297" type="line"/>
      <point x="583" y="297" type="line" smooth="yes"/>
      <point x="636" y="297"/>
      <point x="659" y="257"/>
      <point x="659" y="164" type="curve" smooth="yes"/>
      <point x="659" y="56"/>
      <point x="636" y="10"/>
      <point x="584" y="10" type="curve" smooth="yes"/>
    </contour>
  </outline>
</glyph>
<glyph name="uniAB69" format="2">
  <advance width="465"/>
  <unicode hex="AB69"/>
  <anchor x="232" y="287" name="bottom"/>
  <anchor x="-5" y="287" name="bottomleft"/>
  <anchor x="232" y="609" name="top"/>
  <outline>
    <contour>
      <point x="429" y="325" type="curve" smooth="yes"/>
      <point x="358" y="609" type="line"/>
      <point x="302" y="609" type="line"/>
      <point x="241" y="379" type="line"/>
      <point x="172" y="609" type="line"/>
      <point x="114" y="609" type="line"/>
      <point x="50" y="323" type="line"/>
      <point x="44" y="295"/>
      <point x="39" y="293"/>
      <point x="13" y="293" type="curve" smooth="yes"/>
      <point x="0" y="293" type="line"/>
      <point x="0" y="287" type="line"/>
      <point x="106" y="287" type="line"/>
      <point x="106" y="293" type="line"/>
      <point x="78" y="293" type="line" smooth="yes"/>
      <point x="58" y="293"/>
      <point x="55" y="298"/>
      <point x="55" y="305" type="curve" smooth="yes"/>
      <point x="55" y="313"/>
      <point x="58" y="327"/>
      <point x="63" y="346" type="curve" smooth="yes"/>
      <point x="93" y="484" type="line" smooth="yes"/>
      <point x="98" y="505"/>
      <point x="102" y="522"/>
      <point x="105" y="540" type="curve"/>
      <point x="106" y="540" type="line"/>
      <point x="112" y="515"/>
      <point x="117" y="496"/>
      <point x="123" y="476" type="curve" smooth="yes"/>
      <point x="181" y="287" type="line"/>
      <point x="223" y="287" type="line"/>
      <point x="275" y="485" type="line" smooth="yes"/>
      <point x="278" y="497"/>
      <point x="282" y="515"/>
      <point x="288" y="536" type="curve"/>
      <point x="289" y="536" type="line"/>
      <point x="293" y="517"/>
      <point x="296" y="503"/>
      <point x="299" y="491" type="curve" smooth="yes"/>
      <point x="335" y="349" type="line" smooth="yes"/>
      <point x="340" y="329"/>
      <point x="345" y="316"/>
      <point x="345" y="307" type="curve" smooth="yes"/>
      <point x="345" y="297"/>
      <point x="338" y="293"/>
      <point x="319" y="293" type="curve" smooth="yes"/>
      <point x="288" y="293" type="line"/>
      <point x="288" y="287" type="line"/>
      <point x="466" y="287" type="line"/>
      <point x="466" y="293" type="line"/>
      <point x="465" y="293" type="line" smooth="yes"/>
      <point x="441" y="293"/>
      <point x="436" y="296"/>
    </contour>
  </outline>
</glyph>
<glyph name="uniFE21" format="2">
  <unicode hex="FE21"/>
  <anchor x="-2" y="536" name="_top"/>
  <outline>
    <contour>
      <point x="312" y="593" type="curve"/>
      <point x="322" y="593" type="line"/>
      <point x="276" y="730"/>
      <point x="154" y="800"/>
      <point x="8" y="800" type="curve" smooth="yes"/>
      <point x="-2" y="800" type="line"/>
      <point x="-2" y="714" type="line"/>
      <point x="186" y="714"/>
      <point x="250" y="684"/>
    </contour>
  </outline>
</glyph>
<glyph name="uniFE22" format="2">
  <unicode hex="FE22"/>
  <anchor x="2" y="536" name="_top"/>
  <outline>
    <contour>
      <point x="-320" y="592" type="curve"/>
      <point x="-310" y="592" type="line"/>
      <point x="-290" y="644"/>
      <point x="-257" y="680"/>
      <point x="-195" y="680" type="curve" smooth="yes"/>
      <point x="-119" y="680"/>
      <point x="-57" y="652"/>
      <point x="2" y="626" type="curve"/>
      <point x="2" y="712" type="line"/>
      <point x="-48" y="727"/>
      <point x="-105" y="742"/>
      <point x="-157" y="742" type="curve" smooth="yes"/>
      <point x="-269" y="742"/>
      <point x="-304" y="668"/>
    </contour>
  </outline>
</glyph>
<glyph name="uniFE23" format="2">
  <unicode hex="FE23"/>
  <anchor x="-3" y="536" name="_top"/>
  <outline>
    <contour>
      <point x="156" y="597" type="curve" smooth="yes"/>
      <point x="268" y="597"/>
      <point x="303" y="671"/>
      <point x="319" y="747" type="curve"/>
      <point x="309" y="747" type="line"/>
      <point x="289" y="695"/>
      <point x="256" y="659"/>
      <point x="194" y="659" type="curve" smooth="yes"/>
      <point x="118" y="659"/>
      <point x="56" y="687"/>
      <point x="-3" y="713" type="curve"/>
      <point x="-3" y="627" type="line"/>
      <point x="47" y="612"/>
      <point x="104" y="597"/>
    </contour>
  </outline>
</glyph>
<glyph name="uniFE29" format="2">
  <unicode hex="FE29"/>
  <anchor x="0" y="0" name="_bottom"/>
  <anchor x="-171" y="536" name="braceleft"/>
  <outline>
    <contour>
      <point x="-362" y="-202" type="curve"/>
      <point x="-353" y="-202" type="line"/>
      <point x="-340" y="-177"/>
      <point x="-323" y="-159"/>
      <point x="-303" y="-148" type="curve" smooth="yes"/>
      <point x="-284" y="-138"/>
      <point x="-263" y="-128"/>
      <point x="-224" y="-128" type="curve" smooth="yes"/>
      <point x="-152" y="-128"/>
      <point x="-94" y="-146"/>
      <point x="0" y="-172" type="curve"/>
      <point x="0" y="-92" type="line"/>
      <point x="-69" y="-71"/>
      <point x="-134" y="-61"/>
      <point x="-194" y="-61" type="curve" smooth="yes"/>
      <point x="-281" y="-61"/>
      <point x="-341" y="-113"/>
    </contour>
  </outline>
</glyph>
<glyph name="uniFE2A" format="2">
  <unicode hex="FE2A"/>
  <anchor x="0" y="0" name="_bottom"/>
  <anchor x="170" y="536" name="braceleft"/>
  <outline>
    <contour>
      <point x="194" y="-203" type="curve" smooth="yes"/>
      <point x="281" y="-203"/>
      <point x="341" y="-151"/>
      <point x="362" y="-62" type="curve"/>
      <point x="353" y="-62" type="line"/>
      <point x="340" y="-87"/>
      <point x="323" y="-105"/>
      <point x="303" y="-116" type="curve" smooth="yes"/>
      <point x="284" y="-126"/>
      <point x="263" y="-136"/>
      <point x="224" y="-136" type="curve" smooth="yes"/>
      <point x="152" y="-136"/>
      <point x="94" y="-118"/>
      <point x="0" y="-92" type="curve"/>
      <point x="0" y="-172" type="line"/>
      <point x="69" y="-193"/>
      <point x="135" y="-203"/>
    </contour>
  </outline>
</glyph>
<glyph name="uniFE2F" format="2">
  <unicode hex="FE2F"/>
  <anchor x="71" y="536" name="_top"/>
  <outline>
    <contour>
      <point x="-122" y="630" type="line"/>
      <point x="82" y="630" type="line" smooth="yes"/>
      <point x="109" y="630"/>
      <point x="122" y="643"/>
      <point x="122" y="672" type="curve" smooth="yes"/>
      <point x="122" y="701"/>
      <point x="109" y="715"/>
      <point x="82" y="715" type="curve" smooth="yes"/>
      <point x="47" y="715"/>
      <point x="42" y="700"/>
      <point x="42" y="650" type="curve"/>
      <point x="-122" y="650" type="line"/>
    </contour>
  </outline>
</glyph>
<glyph name="hbar.sc" format="2">
  <advance width="629"/>
  <anchor x="315" y="0" name="bottom"/>
  <anchor x="315" y="571" name="top"/>
  <anchor x="315" y="286" name="center"/>
  <anchor x="605" y="571" name="topright"/>
  <outline>
    <contour>
      <point x="12" y="436" type="line"/>
      <point x="617" y="436" type="line"/>
      <point x="617" y="446" type="line"/>
      <point x="12" y="446" type="line"/>
    </contour>
    <component base="h.sc" xOffset="4"/>
  </outline>
</glyph>
<glyph name="lslash.sc" format="2">
  <advance width="504"/>
  <anchor x="252" y="0" name="bottom"/>
  <anchor x="252" y="571" name="top"/>
  <anchor x="252" y="286" name="center"/>
  <anchor x="484" y="571" name="topright"/>
  <outline>
    <contour>
      <point x="18" y="170" type="line"/>
      <point x="353" y="369" type="line"/>
      <point x="353" y="381" type="line"/>
      <point x="18" y="182" type="line"/>
    </contour>
    <component base="l.sc"/>
  </outline>
</glyph>
